<?xml version="1.0" standalone="no"?>
<!DOCTYPE svg PUBLIC "-//W3C//DTD SVG 20010904//EN"
 "http://www.w3.org/TR/2001/REC-SVG-20010904/DTD/svg10.dtd">
<svg version="1.0" xmlns="http://www.w3.org/2000/svg"
 width="316.000000pt" height="275.000000pt" viewBox="0 0 316.000000 275.000000"
 preserveAspectRatio="xMidYMid meet">

<g transform="translate(0.000000,275.000000) scale(0.100000,-0.100000)"
fill="#000000" stroke="none">
<path d="M766 2698 c-20 -32 -747 -1312 -749 -1319 -1 -3 169 -308 378 -678
l380 -671 768 2 769 3 379 665 c208 366 378 670 378 675 0 6 -170 309 -377
675 l-378 665 -767 3 -766 2 -15 -22z m1399 -47 c-11 -9 -1123 -371 -1141
-371 -8 0 -153 295 -182 371 -2 5 293 9 664 9 369 0 664 -4 659 -9z m220 -667
c61 -340 110 -621 109 -623 -4 -5 -1392 848 -1399 859 -3 5 86 38 197 74 112
36 374 122 583 190 209 68 384 123 389 122 5 -1 60 -281 121 -622z m-1531 489
c32 -71 69 -151 82 -180 l23 -52 -347 -332 c-469 -450 -475 -455 -470 -444 24
50 643 1135 647 1135 4 0 33 -57 65 -127z m1825 -536 c161 -285 291 -520 288
-523 -5 -5 -391 -92 -395 -89 -2 2 -48 254 -102 561 -55 308 -102 568 -104
578 -4 16 -3 17 8 5 7 -8 144 -247 305 -532z m-920 -207 c391 -239 710 -438
710 -441 1 -6 -1424 -819 -1434 -819 -3 0 -5 383 -5 851 0 562 3 850 10 847 5
-1 329 -199 719 -438z m-789 -405 c0 -454 -2 -825 -4 -825 -10 0 -827 853
-824 860 4 12 812 789 821 789 4 1 7 -370 7 -824z m1985 -22 c-156 -281 -629
-1112 -632 -1109 -4 4 243 1055 250 1062 5 5 371 90 400 93 5 1 -3 -20 -18
-46z m-588 -628 c-68 -291 -129 -531 -135 -533 -13 -4 -1113 267 -1125 277 -4
4 305 185 685 402 381 218 694 393 696 389 1 -3 -53 -244 -121 -535z m-1641
-28 c120 -125 221 -232 222 -238 2 -5 -31 -68 -74 -140 -62 -104 -79 -128 -89
-117 -13 14 -585 1024 -585 1033 0 6 138 -136 526 -538z m829 -407 c286 -72
529 -135 540 -140 12 -5 -227 -9 -613 -9 -358 -1 -632 3 -630 8 12 32 164 271
172 271 6 0 245 -59 531 -130z"/>
</g>
</svg>
